<svg width="60" height="60" viewBox="0 0 60 60" fill="none" xmlns="http://www.w3.org/2000/svg">
<path fill-rule="evenodd" clip-rule="evenodd" d="M30.58 58.8051H24.1476C23.6204 58.8051 23.1986 58.3834 23.1986 57.8913V52.7243C20 51.6698 17.0826 49.9827 14.5167 47.6628L9.98243 50.3693C9.77153 50.5099 9.49034 50.545 9.24429 50.4747C8.99825 50.4044 8.8225 50.2287 8.6819 50.0178L2.35501 38.8754C2.24957 38.6646 2.21442 38.4185 2.24957 38.1725C2.31986 37.9264 2.49561 37.7155 2.70651 37.6101L7.24078 35.0442C6.85414 33.4273 6.67839 31.705 6.67839 29.9827C6.67839 28.2603 6.85414 26.5732 7.24078 24.9563L2.70651 22.3904C2.49561 22.2498 2.31986 22.0389 2.24957 21.828C2.17927 21.5819 2.21442 21.3359 2.35501 21.0899L8.6819 9.98265C8.8225 9.73661 8.99825 9.59601 9.24429 9.52571C9.49034 9.45541 9.77153 9.49056 9.98243 9.63116L14.5167 12.3025C17.0826 10.0178 20 8.33063 23.1986 7.27615V2.10919C23.1986 1.58195 23.6204 1.16016 24.1476 1.16016H30.58C31.1072 1.16016 31.529 1.58195 31.529 2.10919V17.118C31.529 16.5907 31.1072 16.1689 30.58 16.1689C22.9174 16.1689 16.6608 22.3552 16.6608 29.9827C16.6608 37.6101 22.9174 43.8315 30.58 43.8315C31.1072 43.8315 31.529 43.4097 31.529 42.8825V57.8913C31.529 58.3834 31.1072 58.8051 30.58 58.8051Z" fill="#2B79C2"/>
<path fill-rule="evenodd" clip-rule="evenodd" d="M41.0193 20.2805H30.58C30.0879 20.2805 29.6661 19.8587 29.6661 19.3315C29.6661 18.8042 30.0879 18.3824 30.58 18.3824H41.0193C42.2847 18.3824 43.2337 17.4334 43.2337 16.168V7.38067C43.2337 6.85343 43.6555 6.43164 44.1828 6.43164C44.71 6.43164 45.1318 6.85343 45.1318 7.38067V16.168C45.1318 18.4176 43.2689 20.2805 41.0193 20.2805ZM42.7768 25.6584H30.58C30.0879 25.6584 29.6661 25.2366 29.6661 24.7093C29.6661 24.2172 30.0879 23.7954 30.58 23.7954H42.5308L50.7206 18.98C51.1775 18.7339 51.7399 18.8745 52.0211 19.3315C52.2671 19.7884 52.1265 20.3508 51.6696 20.5968L43.2337 25.5178C43.0931 25.6232 42.9525 25.6584 42.7768 25.6584ZM50.4042 30.9308H30.58C30.0879 30.9308 29.6661 30.509 29.6661 29.9817C29.6661 29.4896 30.0879 29.0678 30.58 29.0678H50.4042C50.8963 29.0678 51.3181 29.4896 51.3181 29.9817C51.3181 30.509 50.8963 30.9308 50.4042 30.9308ZM44.1828 53.5318C43.6555 53.5318 43.2337 53.11 43.2337 52.6179V43.8306C43.2337 42.5652 42.2847 41.581 41.0193 41.581H30.58C30.0879 41.581 29.6661 41.1592 29.6661 40.6671C29.6661 40.1399 30.0879 39.7181 30.58 39.7181H41.0193C43.2689 39.7181 45.1318 41.5459 45.1318 43.8306V52.6179C45.1318 53.11 44.71 53.5318 44.1828 53.5318ZM51.2126 41.1241C51.0369 41.1241 50.8612 41.0889 50.7206 40.9835L42.5308 36.2032H30.58C30.0879 36.2032 29.6661 35.7814 29.6661 35.2541C29.6661 34.762 30.0879 34.3403 30.58 34.3403H42.7768C42.9525 34.3403 43.0931 34.3754 43.2337 34.4457L51.6696 39.3666C52.1265 39.6478 52.2671 40.2102 52.0211 40.6671C51.8453 40.9483 51.529 41.1241 51.2126 41.1241Z" fill="#FFA721"/>
<path fill-rule="evenodd" clip-rule="evenodd" d="M44.1828 8.3304C41.9332 8.3304 40.0703 6.46749 40.0703 4.21793C40.0703 1.86292 41.8981 0 44.1828 0C46.5729 0 48.4007 1.82777 48.4007 4.21793C48.4007 6.50264 46.5378 8.3304 44.1828 8.3304ZM53.6731 21.7926C51.283 21.7926 49.4552 20 49.4552 17.6801C49.4552 15.3603 51.3181 13.4622 53.6731 13.4622C55.9227 13.4622 57.7505 15.3603 57.7505 17.6801C57.7856 19.9648 55.9227 21.7926 53.6731 21.7926ZM53.6731 34.2004C51.3181 34.2004 49.4552 32.3374 49.4552 29.9824C49.4552 27.6626 51.3181 25.7645 53.6731 25.7645C55.9227 25.7645 57.7505 27.6626 57.7505 29.9824C57.7505 32.3374 55.9227 34.2004 53.6731 34.2004ZM44.1828 60C41.8981 60 40.0703 58.1371 40.0703 55.7821C40.0703 53.4974 41.9332 51.6696 44.1828 51.6696C46.5378 51.6696 48.4007 53.4622 48.4007 55.7821C48.4007 58.1722 46.5729 60 44.1828 60ZM53.6731 46.5026C51.3181 46.5026 49.4552 44.6397 49.4552 42.2847C49.4552 40 51.283 38.2074 53.6731 38.2074C55.9227 38.2074 57.7505 40.0351 57.7505 42.2847C57.7856 44.6397 55.9227 46.5026 53.6731 46.5026Z" fill="#FF3131"/>
<path fill-rule="evenodd" clip-rule="evenodd" d="M30.58 43.8305C22.9174 43.8305 16.6608 37.6091 16.6608 29.9817C16.6608 22.3543 22.9174 16.168 30.58 16.168C31.1072 16.168 31.529 16.5898 31.529 17.117V42.8815C31.529 43.4087 31.1072 43.8305 30.58 43.8305Z" fill="white"/>
</svg>
