<svg width="60" height="60" viewBox="0 0 60 60" fill="none" xmlns="http://www.w3.org/2000/svg">
<path d="M26.1834 35.8731C33.5886 35.8731 39.5917 29.87 39.5917 22.4649C39.5917 15.0597 33.5886 9.05664 26.1834 9.05664C18.7783 9.05664 12.7752 15.0597 12.7752 22.4649C12.7752 29.87 18.7783 35.8731 26.1834 35.8731Z" fill="#F7FCFF"/>
<path d="M20.4862 22.4092V9.00589L2.28372 7.49219V17.9713L20.4862 22.4092Z" fill="#ECF8FE"/>
<path d="M11.4261 37.1434C14.0373 39.7546 17.1685 41.5278 20.4862 42.4658V9.00586H10.1674C3.30159 17.2054 3.72015 29.4374 11.4261 37.1434Z" fill="#DEF3FF"/>
<path d="M12.9321 20.2684C8.85578 18.6413 5.16454 18.0825 2.28372 17.9727V49.755C2.28372 54.7815 6.3585 58.8563 11.385 58.8563C16.4115 58.8563 20.4863 54.7815 20.4863 49.755V21.4606C18.1869 21.6159 15.6194 21.3411 12.9321 20.2684Z" fill="#E37784"/>
<path d="M12.9321 20.2673C10.3338 19.2301 7.89329 18.6282 5.71798 18.2988C4.40425 24.905 6.30583 32.0234 11.4261 37.1437C14.0373 39.7549 17.1686 41.528 20.4862 42.4661V21.4595C18.1869 21.6147 15.6194 21.3399 12.9321 20.2673Z" fill="#DF5568"/>
<path d="M21.0137 9.00667H1.75617C0.786296 9.00667 0 8.22037 0 7.2505V2.9007C0 1.93083 0.786296 1.14453 1.75617 1.14453H21.0137C21.9836 1.14453 22.7699 1.93083 22.7699 2.9007V7.2505C22.7699 8.22049 21.9836 9.00667 21.0137 9.00667Z" fill="#2B79C2"/>
<path d="M10.1674 9.00648H20.9662C21.9623 9.00648 22.7699 8.19899 22.7699 7.20278V2.94805C22.7699 2.53944 22.6324 2.16386 22.4033 1.86133C18.3822 2.59822 14.5355 4.51982 11.4261 7.62929C10.9865 8.06961 10.5665 8.52912 10.1674 9.00648Z" fill="#4C5CDD"/>
<path d="M32.9485 34.4947L38.2831 29.1602L48.7914 39.6685L43.4569 45.003L32.9485 34.4947Z" fill="#C3BEC6"/>
<path d="M58.6864 54.0768L57.8734 54.8898C56.1219 56.6413 53.2823 56.6413 51.5309 54.8898L40.0973 43.4562L47.2528 36.3008L58.6864 47.7344C60.4379 49.4857 60.4379 52.3254 58.6864 54.0768Z" fill="#2B79C2"/>
<path d="M22.3883 35.1455V9.62891C16.5369 10.9262 12.1605 16.1452 12.1605 22.3872C12.1605 28.6291 16.5369 33.8481 22.3883 35.1455Z" fill="#F7FCFF"/>
<path d="M22.3883 18.4819V9.62891C17.1648 10.787 13.1198 15.0713 12.3111 20.4175L22.3883 18.4819Z" fill="#ECF8FE"/>
<path d="M13.7789 17.1226C13.6335 17.0646 13.4878 17.0074 13.3417 16.9512C12.5836 18.6064 12.1606 20.447 12.1606 22.3866C12.1606 28.6285 16.5369 33.8476 22.3885 35.145V18.4813C19.7678 18.6583 16.8415 18.3451 13.7789 17.1226Z" fill="#DF5568"/>
<path d="M38.6847 9.88527C31.7803 2.98095 20.5864 2.98095 13.6821 9.88527C6.77775 16.7896 6.77787 27.9835 13.6821 34.8879C20.5863 41.7921 31.7803 41.7921 38.6847 34.8879C45.589 27.9835 45.589 16.7896 38.6847 9.88527ZM35.2049 31.4081C30.2225 36.3904 22.1444 36.3904 17.1619 31.4081C12.1794 26.4257 12.1795 18.3476 17.1619 13.3651C22.1442 8.38258 30.2224 8.38269 35.2049 13.3651C40.1874 18.3476 40.1874 26.4256 35.2049 31.4081Z" fill="#A4E4FF"/>
<path d="M31.6895 20.7935H27.8247C27.5848 20.7935 27.3548 20.6982 27.1851 20.5285C27.0155 20.3589 26.9202 20.1288 26.9202 19.8889C26.9202 19.649 27.0155 19.4189 27.1851 19.2493C27.3548 19.0797 27.5848 18.9844 27.8247 18.9844H31.6895C31.9294 18.9844 32.1595 19.0797 32.3291 19.2493C32.4987 19.4189 32.594 19.649 32.594 19.8889C32.594 20.1288 32.4987 20.3589 32.3291 20.5285C32.1595 20.6982 31.9294 20.7935 31.6895 20.7935ZM31.6895 24.8042H27.8247C27.5848 24.8042 27.3548 24.7089 27.1851 24.5393C27.0155 24.3696 26.9202 24.1396 26.9202 23.8997C26.9202 23.6598 27.0155 23.4297 27.1851 23.2601C27.3548 23.0904 27.5848 22.9951 27.8247 22.9951H31.6895C31.9294 22.9951 32.1595 23.0904 32.3291 23.2601C32.4987 23.4297 32.594 23.6598 32.594 23.8997C32.594 24.1396 32.4987 24.3696 32.3291 24.5393C32.1595 24.7089 31.9294 24.8042 31.6895 24.8042Z" fill="#6C79E2"/>
<path d="M3.84496 28.6836H2.28372V30.4928H3.84507C4.08321 30.4901 4.31066 30.3936 4.47809 30.2242C4.64551 30.0548 4.7394 29.8263 4.73939 29.5881C4.73937 29.35 4.64545 29.1215 4.478 28.9521C4.31056 28.7828 4.08309 28.6863 3.84496 28.6836ZM6.50415 34.5231C6.50415 34.2832 6.40885 34.0531 6.23921 33.8835C6.06958 33.7138 5.8395 33.6185 5.5996 33.6185H2.28372V35.4278H5.5996C5.83951 35.4277 6.06959 35.3324 6.23922 35.1627C6.40885 34.9931 6.50415 34.763 6.50415 34.5231ZM7.61381 38.5533H2.28372V40.3625H7.61381C7.85195 40.3598 8.07941 40.2633 8.24684 40.0939C8.41428 39.9246 8.50818 39.696 8.50818 39.4579C8.50818 39.2197 8.41428 38.9912 8.24684 38.8218C8.07941 38.6525 7.85195 38.556 7.61381 38.5533ZM6.50415 44.3928C6.50415 44.1529 6.40885 43.9228 6.23921 43.7532C6.06958 43.5835 5.8395 43.4882 5.5996 43.4882H2.28372V45.2974H5.5996C5.83951 45.2974 6.06959 45.2021 6.23922 45.0324C6.40885 44.8628 6.50415 44.6327 6.50415 44.3928Z" fill="#DF5568"/>
</svg>
