<svg width="61" height="60" viewBox="0 0 61 60" fill="none" xmlns="http://www.w3.org/2000/svg">
<g clip-path="url(#clip0_62432_18355)">
<path d="M22.151 30.0891L30.3328 15.9184L35.0564 18.6455L26.8746 32.8164L22.151 30.0891ZM52.0398 11.5229L46.4883 13.0105L37.1117 15.5231C36.8811 15.5855 36.6431 15.6172 36.4042 15.6172C35.1992 15.6172 34.098 14.813 33.772 13.5948C33.382 12.1399 34.2453 10.6439 35.7002 10.254L45.0767 7.74137L50.6283 6.25391L52.0398 11.5229Z" fill="#7B849B"/>
<path d="M52.0398 11.5229L46.4883 13.0105C45.8954 12.3138 45.4439 11.4771 45.1916 10.5341C44.9393 9.59105 44.9115 8.6409 45.0769 7.74137L50.6284 6.25391L52.0398 11.5229Z" fill="#5D6A85"/>
<path d="M53.9682 14.5476C57.4828 14.5476 60.3319 11.6985 60.3319 8.18395C60.3319 4.66941 57.4828 1.82031 53.9682 1.82031C50.4537 1.82031 47.6046 4.66941 47.6046 8.18395C47.6046 11.6985 50.4537 14.5476 53.9682 14.5476Z" fill="#83DEFF"/>
<path d="M20.525 41.401L10.5395 53.3012L6.36102 49.7951L16.3466 37.8948C17.2863 36.775 18.956 36.6288 20.0758 37.5686L20.1988 37.6717C21.3186 38.6114 21.4647 40.281 20.525 41.401Z" fill="#5D6A85"/>
<path d="M21.2424 45.4553C26.2632 45.4553 30.3334 41.3852 30.3334 36.3644C30.3334 31.3436 26.2632 27.2734 21.2424 27.2734C16.2216 27.2734 12.1515 31.3436 12.1515 36.3644C12.1515 41.3852 16.2216 45.4553 21.2424 45.4553Z" fill="#83DEFF"/>
<path d="M23.0709 45.2713C22.4693 45.3939 21.8568 45.4554 21.2429 45.4548C16.2214 45.4548 12.1512 41.3848 12.1512 36.3644C12.1512 31.9647 15.2748 28.2954 19.4269 27.4551C17.8079 33.6768 19.0793 40.2051 23.0709 45.2713Z" fill="#5599D8"/>
<path d="M6.69713 60.0007C10.2117 60.0007 13.0608 57.1516 13.0608 53.6371C13.0608 50.1225 10.2117 47.2734 6.69713 47.2734C3.18259 47.2734 0.333496 50.1225 0.333496 53.6371C0.333496 57.1516 3.18259 60.0007 6.69713 60.0007Z" fill="#F5C956"/>
<path d="M40.2436 44.4557L37.516 49.1803L32.2289 46.128L24.1322 41.453C23.2568 40.9472 22.7679 40.0307 22.7679 39.0877C22.7679 38.6253 22.8862 38.1568 23.1337 37.7271C23.8871 36.423 25.5546 35.9764 26.8597 36.7285L34.7825 41.3033L40.2436 44.4557Z" fill="#7B849B"/>
<path d="M40.2436 44.4552L37.516 49.1797L32.2289 46.1275C32.2881 45.1362 32.5718 44.1449 33.1018 43.2261C33.53 42.4806 34.1012 41.827 34.7825 41.3027L40.2436 44.4552Z" fill="#5D6A85"/>
<path d="M41.2414 54.5437C44.756 54.5437 47.6051 51.6946 47.6051 48.18C47.6051 44.6655 44.756 41.8164 41.2414 41.8164C37.7269 41.8164 34.8778 44.6655 34.8778 48.18C34.8778 51.6946 37.7269 54.5437 41.2414 54.5437Z" fill="#60DAA8"/>
<path d="M43.3527 12.7272C43.3527 16.7659 40.7194 20.19 37.0743 21.3733C36.1881 21.6631 35.2426 21.8188 34.2611 21.8188C29.2407 21.8188 25.1706 17.7475 25.1706 12.7272C25.1706 7.73828 29.19 3.68746 34.168 3.63801C34.1982 3.63672 34.2295 3.63672 34.2609 3.63672C39.2825 3.63672 43.3527 7.70688 43.3527 12.7272Z" fill="#60DAA8"/>
<path d="M37.0743 21.3739C36.1881 21.6637 35.2426 21.8195 34.2611 21.8195C29.2407 21.8195 25.1706 17.7482 25.1706 12.7279C25.1706 7.73895 29.19 3.68812 34.168 3.63867C32.6443 9.76125 33.6586 16.1375 37.0743 21.3739Z" fill="#00C67F"/>
<path d="M28.1779 13.7268L13.1725 9.70613L14.5843 4.4375L29.5897 8.4582C31.0018 8.8366 31.8398 10.2881 31.4614 11.7002L31.4199 11.8551C31.0415 13.2671 29.59 14.1051 28.1779 13.7268Z" fill="#5D6A85"/>
<path d="M11.244 12.7292C14.7585 12.7292 17.6076 9.88012 17.6076 6.36559C17.6076 2.85105 14.7585 0.00195312 11.244 0.00195312C7.72947 0.00195312 4.88037 2.85105 4.88037 6.36559C4.88037 9.88012 7.72947 12.7292 11.244 12.7292Z" fill="#F5C956"/>
</g>
<defs>
<clipPath id="clip0_62432_18355">
<rect width="60" height="60" fill="white" transform="translate(0.333374)"/>
</clipPath>
</defs>
</svg>
