<svg width="60" height="60" viewBox="0 0 60 60" fill="none" xmlns="http://www.w3.org/2000/svg">
<g clip-path="url(#clip0_62432_18414)">
<mask id="mask0_62432_18414" style="mask-type:luminance" maskUnits="userSpaceOnUse" x="0" y="0" width="60" height="60">
<path d="M0 0.000179291H59.9998V60H0V0.000179291Z" fill="white"/>
</mask>
<g mask="url(#mask0_62432_18414)">
<path d="M29.9999 0.000675201C13.4314 0.000675201 0 13.4321 0 30.0006C0 39.9729 4.8669 48.8068 12.3536 54.2617H47.6462C55.1329 48.8068 59.9998 39.9729 59.9998 30.0006C59.9998 13.4321 46.5684 0.000675201 29.9999 0.000675201Z" fill="#2B79C2"/>
<path d="M19.1956 24.8383C19.1956 26.6728 20.6828 28.1602 22.5174 28.1602C24.352 28.1602 25.8392 26.6728 25.8392 24.8383C25.8392 23.0037 24.352 21.5165 22.5174 21.5165C20.6828 21.5165 19.1956 23.0037 19.1956 24.8383Z" fill="#B2381B"/>
<path d="M49.9738 2.5448C49.3302 1.06637 41.4197 -1.64523 34.5294 1.35453C30.855 2.95414 29.173 7.22959 30.7728 10.904C32.3725 14.5784 36.6478 16.2603 40.3223 14.6607C47.2125 11.6609 50.6174 4.02324 49.9738 2.5448Z" fill="#A3EA6E"/>
<path d="M41.6951 10.593C38.0208 12.1926 33.7452 10.5108 32.1456 6.83631C31.7223 5.86658 31.5171 4.81568 31.5447 3.75792C30.0955 5.76757 29.7121 8.46756 30.7729 10.904C32.3725 14.5784 36.6479 16.2603 40.3223 14.6607C46.8512 11.8183 50.2502 4.81249 50.0411 2.82746C48.4961 5.5755 45.6778 8.85908 41.6951 10.593Z" fill="#85D249"/>
<path d="M9.99676 3.30544C9.53832 4.47087 12.3936 10.3046 17.8251 12.4412C20.7216 13.5808 23.9934 12.1562 25.1329 9.25984C26.2723 6.36332 24.8479 3.09157 21.9514 1.95205C16.52 -0.184627 10.4553 2.14001 9.99676 3.30544Z" fill="#A3EA6E"/>
<path d="M19.7495 9.88808C15.4269 8.18757 12.736 4.14556 12.0486 1.97865C10.9059 2.41294 10.1477 2.922 9.99688 3.30544C9.53844 4.47087 12.3937 10.3046 17.8252 12.4412C20.7217 13.5808 23.9935 12.1562 25.1329 9.25984C25.1443 9.23124 25.1536 9.20218 25.1644 9.17359C23.6552 10.2879 21.6242 10.6255 19.7495 9.88808Z" fill="#85D249"/>
<path d="M43.407 30.0519C43.407 32.9313 41.0727 35.2656 38.1932 35.2656C35.3137 35.2656 32.9795 32.9313 32.9795 30.0519C32.9795 27.1724 35.3137 24.8381 38.1932 24.8381C41.0727 24.8381 43.407 27.1724 43.407 30.0519Z" fill="#C04A27"/>
<path d="M16.5929 30.0519C16.5929 32.9313 18.9271 35.2656 21.8067 35.2656C24.6862 35.2656 27.0204 32.9313 27.0204 30.0519C27.0204 27.1724 24.6862 24.8381 21.8067 24.8381C18.9271 24.8381 16.5929 27.1724 16.5929 30.0519Z" fill="#C04A27"/>
<path d="M37.4823 24.8377C37.4823 28.9703 34.1323 32.3203 29.9998 32.3203C25.8673 32.3203 22.5173 28.9703 22.5173 24.8377C22.5173 20.7052 25.8673 17.3552 29.9998 17.3552C34.1323 17.3552 37.4823 20.7052 37.4823 24.8377Z" fill="#D85E41"/>
<path d="M47.6462 50.5479C47.6462 48.6064 46.0721 47.0323 44.1306 47.0323L29.9999 44.6886L15.8693 47.0323C13.9277 47.0323 12.3536 48.6064 12.3536 50.5479V54.2612C17.3058 57.8694 23.4036 60 29.9999 60C36.5963 60 42.694 57.8694 47.6462 54.2612V50.5479Z" fill="#E1EAF9"/>
<path d="M15.8693 47.0315C13.9277 47.0315 12.3536 48.6055 12.3536 50.5471V54.2605C14.9052 56.1195 17.7605 57.5856 20.832 58.5703V50.5471C20.832 48.6055 22.4061 47.0315 24.3476 47.0315V45.4981L15.8693 47.0315Z" fill="#C5DEF8"/>
<path d="M43.4069 38.5293L29.9999 40.873L16.5929 38.5293C14.2516 38.5293 12.3536 36.6313 12.3536 34.2901C12.3536 31.9489 14.2516 30.0508 16.5929 30.0508H43.4069C45.7482 30.0508 47.6462 31.9489 47.6462 34.2901C47.6462 36.6313 45.7482 38.5293 43.4069 38.5293Z" fill="#E1EAF9"/>
<path d="M25.0713 30.0518H16.5929C14.2516 30.0518 12.3536 31.9497 12.3536 34.291C12.3536 36.6322 14.2516 38.5302 16.5929 38.5302L25.0713 40.5391V38.5302C22.73 38.5302 20.832 36.6322 20.832 34.291C20.832 31.9497 22.73 30.0518 25.0713 30.0518Z" fill="#C5DEF8"/>
<path d="M43.4069 47.0078H16.5929C14.2516 47.0078 12.3536 45.11 12.3536 42.7686C12.3536 40.4274 14.2516 38.5294 16.5929 38.5294H43.4069C45.7482 38.5294 47.6462 40.4274 47.6462 42.7686C47.6462 45.11 45.7482 47.0078 43.4069 47.0078Z" fill="#C5DEF8"/>
<path d="M20.832 42.7686C20.832 40.4273 22.73 38.5294 25.0713 38.5294H16.5929C14.2516 38.5294 12.3536 40.4273 12.3536 42.7686C12.3536 45.1098 14.2516 47.0078 16.5929 47.0078H25.0713C22.73 47.0078 20.832 45.1098 20.832 42.7686Z" fill="#8EC2ED"/>
</g>
</g>
<defs>
<clipPath id="clip0_62432_18414">
<rect width="60" height="60" fill="white"/>
</clipPath>
</defs>
</svg>
