<svg width="61" height="60" viewBox="0 0 61 60" fill="none" xmlns="http://www.w3.org/2000/svg">
<path d="M40.5437 34.3605L36.0625 26.0895V7.59961H24.475V26.0895L19.9937 34.3605H40.5437Z" fill="#E6E6E6"/>
<path d="M48.5917 49.2155L39.3533 32.1631C37.265 32.2419 37.1816 33.3104 34.9342 33.3104C32.6015 33.3104 32.6014 32.1582 30.2685 32.1582C27.9355 32.1582 27.9355 33.3104 25.6025 33.3104C23.3556 33.3104 23.2719 32.2419 21.1843 32.1631L11.9457 49.2155C11.8103 49.4736 11.7377 49.76 11.7338 50.0514C11.7299 50.3428 11.7949 50.631 11.9235 50.8925L13.5721 54.248C13.7246 54.5586 13.9612 54.8202 14.2549 55.0032C14.5486 55.1861 14.8878 55.2831 15.2338 55.283H45.3039C45.6499 55.283 45.9889 55.1861 46.2826 55.0031C46.5763 54.8202 46.8128 54.5586 46.9654 54.248L48.6139 50.8925C48.7425 50.631 48.8075 50.3428 48.8036 50.0514C48.7998 49.76 48.7271 49.4736 48.5917 49.2155Z" fill="#FFA143"/>
<path d="M26.6017 23.0841H30.0432V24.3731H26.6017V23.0841ZM26.6017 19.2919H30.0432V20.5809H26.6017V19.2919ZM26.6017 15.4995H30.0432V16.7885H26.6017V15.4995ZM26.6017 11.707H30.0432V12.9961H26.6017V11.707Z" fill="#FC5965"/>
<path d="M34.4573 50.5092H26.0802C25.9673 50.5092 25.8563 50.4795 25.7584 50.4231C25.6606 50.3667 25.5792 50.2856 25.5226 50.1879C25.466 50.0901 25.436 49.9793 25.4357 49.8663C25.4354 49.7533 25.4649 49.6423 25.521 49.5443L29.5279 42.5508H22.6823L18.2608 50.1877L17.1451 49.5417L21.753 41.5833C21.8096 41.4855 21.8909 41.4044 21.9887 41.3479C22.0866 41.2915 22.1976 41.2618 22.3105 41.2617H30.6398C30.7527 41.2617 30.8637 41.2913 30.9616 41.3477C31.0595 41.4041 31.1409 41.4852 31.1975 41.583C31.2542 41.6807 31.2842 41.7916 31.2845 41.9046C31.2848 42.0176 31.2554 42.1286 31.1992 42.2266L27.1923 49.2202H34.0858L38.5072 41.5833L39.6229 42.2292L35.0151 50.1877C34.9584 50.2855 34.8771 50.3666 34.7792 50.4231C34.6813 50.4795 34.5703 50.5092 34.4573 50.5092Z" fill="#FBD100"/>
<path d="M17.7029 51.2264C18.4547 51.2264 19.0642 50.617 19.0642 49.8652C19.0642 49.1134 18.4547 48.5039 17.7029 48.5039C16.9511 48.5039 16.3417 49.1134 16.3417 49.8652C16.3417 50.617 16.9511 51.2264 17.7029 51.2264Z" fill="#FC5965"/>
<path d="M26.0802 51.2264C26.832 51.2264 27.4414 50.617 27.4414 49.8652C27.4414 49.1134 26.832 48.5039 26.0802 48.5039C25.3284 48.5039 24.7189 49.1134 24.7189 49.8652C24.7189 50.617 25.3284 51.2264 26.0802 51.2264Z" fill="#FC5965"/>
<path d="M34.4573 51.2264C35.2091 51.2264 35.8185 50.617 35.8185 49.8652C35.8185 49.1134 35.2091 48.5039 34.4573 48.5039C33.7055 48.5039 33.096 49.1134 33.096 49.8652C33.096 50.617 33.7055 51.2264 34.4573 51.2264Z" fill="#FC5965"/>
<path d="M42.8345 51.2264C43.5863 51.2264 44.1958 50.617 44.1958 49.8652C44.1958 49.1134 43.5863 48.5039 42.8345 48.5039C42.0827 48.5039 41.4733 49.1134 41.4733 49.8652C41.4733 50.617 42.0827 51.2264 42.8345 51.2264Z" fill="#FC5965"/>
<path d="M22.8469 43.1631C23.5416 42.8756 23.8717 42.0795 23.5843 41.3848C23.2968 40.6901 22.5006 40.36 21.806 40.6475C21.1113 40.9349 20.7812 41.7311 21.0686 42.4258C21.3561 43.1205 22.1523 43.4506 22.8469 43.1631Z" fill="#FC5965"/>
<path d="M31.225 43.1612C31.9197 42.8737 32.2498 42.0775 31.9623 41.3829C31.6749 40.6882 30.8787 40.3581 30.184 40.6455C29.4893 40.933 29.1592 41.7292 29.4467 42.4238C29.7342 43.1185 30.5303 43.4486 31.225 43.1612Z" fill="#FC5965"/>
<path d="M40.4077 42.2048C40.5761 41.4721 40.1186 40.7417 39.3859 40.5733C38.6531 40.405 37.9227 40.8625 37.7543 41.5952C37.586 42.3279 38.0435 43.0583 38.7762 43.2267C39.5089 43.3951 40.2394 42.9376 40.4077 42.2048Z" fill="#FC5965"/>
<path d="M37.8444 6.74273C37.8444 6.4967 37.796 6.25307 37.7019 6.02576C37.6077 5.79845 37.4697 5.5919 37.2958 5.41792C37.1218 5.24394 36.9153 5.10592 36.688 5.01176C36.4607 4.9176 36.2171 4.86914 35.971 4.86914H24.5673C23.5363 4.86914 22.693 5.71266 22.693 6.74344C22.693 6.98947 22.7414 7.2331 22.8355 7.46041C22.9297 7.68773 23.0676 7.89427 23.2416 8.06825C23.4156 8.24224 23.6221 8.38025 23.8494 8.47441C24.0767 8.56857 24.3203 8.61703 24.5664 8.61703H35.9701C37.0011 8.61703 37.8444 7.77352 37.8444 6.74273Z" fill="#D3D3D3"/>
</svg>
