<svg width="61" height="60" viewBox="0 0 61 60" fill="none" xmlns="http://www.w3.org/2000/svg">
<path d="M30.6666 58.7377C43.9817 58.7377 54.7757 47.9437 54.7757 34.6286C54.7757 21.3135 43.9817 10.5195 30.6666 10.5195C17.3515 10.5195 6.5575 21.3135 6.5575 34.6286C6.5575 47.9437 17.3515 58.7377 30.6666 58.7377Z" fill="#FFF5F5"/>
<path d="M54.7756 34.6285C54.7756 47.9551 43.9908 58.7375 30.6666 58.7375V10.5195C43.9932 10.5195 54.7756 21.3043 54.7756 34.6285Z" fill="#ECE6F2"/>
<path d="M42.5448 31.3754C31.1534 27.5499 29.9996 45.8671 16.5901 35.9949L24.3971 19.625V13.3071L23.8577 11.4922L24.3971 9.55191V2.82031H36.9362V9.55109L37.6739 11.384L36.9362 13.1929V19.625L42.5448 31.3754Z" fill="#ECE6F2"/>
<path d="M42.5447 31.3754C37.0405 29.5273 33.9268 32.8473 30.6666 35.6598V2.82031H36.9362V9.55039L37.6733 11.3844L36.9362 13.1926V19.625L42.5447 31.3754Z" fill="#CFCFE6"/>
<path d="M46.1271 38.9896L42.5449 31.4845C31.0801 26.1216 30.4076 44.8249 16.5902 36.1047L15.2133 38.9918C12.94 43.7589 16.4123 49.2772 21.7037 49.2772H39.6379C44.9212 49.2772 48.4065 43.7651 46.1271 38.9896Z" fill="#ACEF43"/>
<path d="M39.6385 49.277H30.6666V34.8629C33.9115 31.9953 36.9373 28.8617 42.5448 31.4844L46.1272 38.9891C48.4065 43.7645 44.9213 49.277 39.6385 49.277Z" fill="#8CD96B"/>
<path d="M36.9361 9.66211V13.3078C46.174 16.0453 52.7072 24.6633 52.7072 34.4438C52.7072 37.5023 52.0803 40.4156 50.9506 43.0664L12.0256 22.732C14.8299 18.2824 19.1834 14.8547 24.3971 13.3078V9.66211C13.3146 12.4594 5.11035 22.5023 5.11035 34.4438C5.11035 48.5672 16.5408 60 30.6666 60C44.7912 60 56.2228 48.5695 56.2228 34.4438C56.2228 22.5551 48.0654 12.4699 36.9361 9.66211ZM30.6666 56.4844C18.5131 56.4844 8.62598 46.5973 8.62598 34.4438C8.62598 31.4227 9.25293 28.5094 10.392 25.8445L49.3158 46.1789C45.4076 52.3652 38.51 56.4844 30.6666 56.4844Z" fill="#2B79C2"/>
<path d="M36.9362 9.66211V13.3078C46.174 16.0453 52.7072 24.6633 52.7072 34.4438C52.7072 37.5023 52.0803 40.4156 50.9506 43.0664L30.6666 32.4703V36.4359L49.3158 46.1789C45.4076 52.3652 38.51 56.4844 30.6666 56.4844V60C44.7912 60 56.2229 48.5695 56.2229 34.4438C56.2229 22.5551 48.0655 12.4699 36.9362 9.66211Z" fill="#2B79C2"/>
<path d="M37.1009 0H24.2476C23.2768 0 22.4897 0.787031 22.4897 1.75781C22.4897 2.72859 23.2768 3.51562 24.2476 3.51562H37.1009C38.0717 3.51562 38.8587 2.72859 38.8587 1.75781C38.8587 0.787031 38.0717 0 37.1009 0Z" fill="#ECE6F2"/>
<path d="M38.8592 1.75781C38.8592 2.72812 38.0717 3.51562 37.1014 3.51562H30.6666V0H37.1014C38.0717 0 38.8592 0.7875 38.8592 1.75781Z" fill="#CFCFE6"/>
</svg>
