<svg width="60" height="60" viewBox="0 0 60 60" fill="none" xmlns="http://www.w3.org/2000/svg">
<path d="M58.7812 3.01172V38.3789C58.7812 40.0195 57.4453 41.3555 55.8047 41.3555H9.52734C7.88672 41.3555 6.5625 40.0195 6.5625 38.3789V3.01172C6.5625 1.37109 7.88672 0.046875 9.52734 0.046875H55.8047C57.4453 0.046875 58.7812 1.37109 58.7812 3.01172Z" fill="#61BEFF"/>
<path d="M9.63281 3.99609H54.8203V37.3945H9.63281V3.99609Z" fill="#F2F7FE"/>
<path d="M47.168 18.9023C46.875 19.3125 46.3945 19.5117 45.9492 19.4297C46.1367 18.7383 46.2305 18.0234 46.1836 17.3086C46.4766 17.2734 46.6523 17.2148 46.8398 17.1914C46.8398 17.1797 46.8398 17.1797 46.8516 17.168C47.4258 17.5312 47.5664 18.3281 47.168 18.9023Z" fill="#EF9E9A"/>
<path d="M46.8516 17.1798C46.8516 17.1915 46.8516 17.1915 46.8399 17.2032C44.4492 17.8361 41.1914 16.922 39.668 14.8712C39.3047 15.3517 38.3555 16.4415 36.7149 16.9572C36.2578 17.0978 35.8242 17.1681 35.4375 17.2032H34.4414C33.4453 14.0275 35.8125 11.2618 38.4492 11.1798C42.8906 6.9259 48.586 11.1564 46.8516 17.1798Z" fill="#466F91"/>
<path d="M46.1953 17.6367C46.125 20.7305 43.957 24.5156 40.6406 24.6797C37.1953 24.5039 34.957 20.4375 35.0977 17.2148C35.6367 17.2031 36.1172 17.1328 36.7149 16.957C38.3555 16.4414 39.3047 15.3516 39.668 14.8711C40.957 16.6641 44.0742 17.7656 46.1836 17.3086C46.1953 17.4258 46.1953 17.5312 46.1953 17.6367Z" fill="#F1C6C1"/>
<path d="M35.3438 19.4414C34.125 19.6523 33.375 17.8828 34.4414 17.2031V17.2148H35.0977C35.0508 17.9531 35.1445 18.7148 35.3438 19.4414Z" fill="#EF9E9A"/>
<path d="M52.7109 37.3945H28.5703L29.4258 32.1328C29.7773 29.9766 31.125 28.2305 32.9062 27.6211C33.4805 27.4336 35.7187 26.6719 36.2461 26.4961C38.5898 29.2734 42.6797 29.2852 45.0352 26.4961C45.5508 26.6719 47.8125 27.4336 48.3633 27.6211C50.1445 28.2305 51.4805 29.9648 51.8437 32.1328L52.7109 37.3945Z" fill="#8FD5AA"/>
<path d="M43.1016 25.8398C41.7773 27.2812 39.5039 27.2695 38.1914 25.8398L38.332 23.9062C39.7266 24.9141 41.5664 24.9141 42.9492 23.9062L43.1016 25.8398Z" fill="#EF9E9A"/>
<path d="M45.0352 26.4961C42.668 29.2969 38.6016 29.2734 36.2344 26.4961L38.1797 25.8398C39.4922 27.2695 41.7656 27.2813 43.0898 25.8398L45.0352 26.4961Z" fill="#72AF9D"/>
<path d="M19.3242 49.6055C18.5039 49.6055 17.8477 50.2734 17.8477 51.082V59.9531H10.1836V51.0938C10.1836 50.2734 10.8516 49.6172 11.6602 49.6172H19.3242V49.6055Z" fill="#2B79C2"/>
<path d="M49.8164 51.0939V59.965H17.8359V51.0939C17.8359 50.2736 18.5039 49.6173 19.3125 49.6173H48.3281C49.1484 49.6056 49.8164 50.2736 49.8164 51.0939Z" fill="#61BEFF"/>
<path d="M24.7148 41.3438H35.2734V49.6055H24.7148V41.3438Z" fill="#466F91"/>
<path d="M20.0156 52.1836H39.9844V57.375H20.0156V52.1836Z" fill="#F2F7FE"/>
<path d="M5.17969 3.99609H9.63281V37.3945H5.17969V3.99609Z" fill="#CBD9F7"/>
<path d="M33.6797 55.4414H26.3203C25.4649 55.4414 25.4531 54.1289 26.3203 54.1289H33.6797C34.5352 54.1289 34.5469 55.4414 33.6797 55.4414Z" fill="#466F91"/>
<path d="M10.1836 9.44531H19.1719V12.832H10.1836V9.44531Z" fill="#EF9E9A"/>
<path d="M25.5 17.8359H10.1836C9.32813 17.8359 9.31641 16.5234 10.1836 16.5234H25.5C26.3555 16.5234 26.3672 17.8359 25.5 17.8359ZM25.5 22.1719H10.1836C9.32813 22.1719 9.31641 20.8594 10.1836 20.8594H25.5C26.3555 20.8594 26.3672 22.1719 25.5 22.1719ZM25.5 26.5195H10.1836C9.32813 26.5195 9.31641 25.207 10.1836 25.207H25.5C26.3555 25.1953 26.3672 26.5078 25.5 26.5195ZM25.5 30.8555H10.1836C9.32813 30.8555 9.31641 29.543 10.1836 29.543H25.5C26.3555 29.543 26.3672 30.8555 25.5 30.8555Z" fill="#466F91"/>
<path d="M12.5977 41.3438H4.19531C2.55469 41.3438 1.21875 40.0078 1.21875 38.3672V3.01172C1.21875 1.37109 2.55469 0.046875 4.19531 0.046875H12.5977C10.957 0.046875 9.63281 1.37109 9.63281 3.01172V3.99609H5.17969V37.3945H9.63281V38.3789C9.63281 40.0195 10.957 41.3438 12.5977 41.3438Z" fill="#2B79C2"/>
</svg>
