<svg width="61" height="60" viewBox="0 0 61 60" fill="none" xmlns="http://www.w3.org/2000/svg">
<path d="M14.3959 13.125C13.65 13.125 12.9346 13.4213 12.4071 13.9488C11.8797 14.4762 11.5834 15.1916 11.5834 15.9375V29.0625L18.1459 30.9375L28.4584 26.25L31.2709 17.8125L29.3959 13.125H14.3959Z" fill="#7DAFFF"/>
<path d="M22.8334 18.75H30.3334V20.625H22.8334V18.75ZM15.3334 18.75H20.9584V20.625H15.3334V18.75ZM15.3334 23.4375H28.4584V25.3125H15.3334V23.4375Z" fill="#548AFF"/>
<path d="M48.1459 19.9148V54.375C48.1457 55.1209 47.8493 55.8361 47.3219 56.3635C46.7945 56.8909 46.0792 57.1873 45.3334 57.1875H17.2084C16.4625 57.1873 15.7472 56.8909 15.2198 56.3635C14.6924 55.8361 14.3961 55.1209 14.3959 54.375V30.9375L29.3959 27.1875V9.375H37.606C38.3518 9.37565 39.0669 9.6719 39.5947 10.1988L47.322 17.9262C47.849 18.4539 48.1452 19.1691 48.1459 19.9148Z" fill="#548AFF"/>
<path d="M19.0834 48.75H28.4584V50.625H19.0834V48.75ZM30.3334 48.75H36.8959V50.625H30.3334V48.75ZM38.7709 48.75H44.3959V50.625H38.7709V48.75ZM19.0834 43.125H21.8959V45H19.0834V43.125ZM23.7709 43.125H33.1459V45H23.7709V43.125ZM19.0834 37.5H26.5834V39.375H19.0834V37.5ZM28.4584 37.5H35.9584V39.375H28.4584V37.5ZM41.5834 28.125H43.4584V30H41.5834V28.125ZM31.2709 28.125H39.7084V30H31.2709V28.125ZM37.8334 22.5H43.4584V24.375H37.8334V22.5ZM30.3334 22.5H35.9584V24.375H30.3334V22.5ZM35.0209 43.125H41.5834V45H35.0209V43.125Z" fill="#486BE0"/>
<path d="M26.5775 29.5308L29.8583 26.25L32.9047 29.2964L29.6239 32.5772L26.5775 29.5308Z" fill="#F78E00"/>
<path d="M29.3894 32.812L33.1388 29.0625L36.0087 31.9324L32.2593 35.682L29.3894 32.812Z" fill="#FFB401"/>
<path d="M31.2635 36.5635L36.8875 30.9395L55.6347 49.6866L50.0107 55.3107L31.2635 36.5635Z" fill="#FFC431"/>
<path d="M50.0209 55.3125L50.7309 56.0225C51.1003 56.3919 51.5387 56.6849 52.0213 56.8847C52.5039 57.0846 53.0211 57.1875 53.5434 57.1875C54.5983 57.1875 55.61 56.7684 56.3559 56.0225C57.1018 55.2766 57.5209 54.2649 57.5209 53.21C57.5209 52.6877 57.418 52.1705 57.2181 51.6879C57.0182 51.2054 56.7253 50.7669 56.3559 50.3975L55.6459 49.6875L50.0209 55.3125Z" fill="#FFB401"/>
<path d="M18.1459 2.8125C15.1792 2.8125 12.2791 3.69223 9.81233 5.34046C7.34559 6.98868 5.423 9.33136 4.28769 12.0722C3.15237 14.8131 2.85532 17.8291 3.4341 20.7389C4.01288 23.6486 5.44149 26.3213 7.53928 28.4191C9.63707 30.5169 12.3098 31.9455 15.2195 32.5243C18.1292 33.1031 21.1452 32.806 23.8861 31.6707C26.627 30.5354 28.9697 28.6128 30.6179 26.1461C32.2661 23.6793 33.1459 20.7792 33.1459 17.8125C33.1459 13.8343 31.5655 10.0189 28.7525 7.2059C25.9394 4.39285 22.1241 2.8125 18.1459 2.8125ZM18.1459 29.0625C15.9208 29.0625 13.7458 28.4027 11.8957 27.1665C10.0457 25.9304 8.60372 24.1734 7.75224 22.1177C6.90075 20.062 6.67796 17.8 7.11205 15.6177C7.54613 13.4354 8.61759 11.4309 10.1909 9.85755C11.7643 8.28421 13.7688 7.21275 15.9511 6.77867C18.1334 6.34458 20.3954 6.56737 22.4511 7.41886C24.5067 8.27034 26.2637 9.71228 27.4999 11.5623C28.7361 13.4124 29.3959 15.5875 29.3959 17.8125C29.3959 20.7962 28.2106 23.6577 26.1008 25.7675C23.991 27.8772 21.1296 29.0625 18.1459 29.0625Z" fill="#FFC431"/>
<path d="M47.8927 18.7508H40.6459C40.3996 18.7508 40.1558 18.7024 39.9283 18.6082C39.7008 18.514 39.494 18.3759 39.3199 18.2017C39.1458 18.0276 39.0077 17.8209 38.9135 17.5934C38.8193 17.3659 38.7708 17.122 38.7709 16.8758V9.62891C39.0776 9.76807 39.3566 9.9614 39.5947 10.1996L47.322 17.927C47.5603 18.165 47.7536 18.4441 47.8927 18.7508Z" fill="#7DAFFF"/>
</svg>
