<svg width="61" height="60" viewBox="0 0 61 60" fill="none" xmlns="http://www.w3.org/2000/svg">
<path d="M46.6956 47.1398V31.4717C46.6961 31.1116 46.6255 30.7549 46.4879 30.4221C46.3503 30.0894 46.1484 29.787 45.8937 29.5323C45.6391 29.2777 45.3367 29.0758 45.0039 28.9382C44.6712 28.8006 44.3145 28.73 43.9544 28.7305H9.74086C9.01403 28.7311 8.31714 29.0201 7.8032 29.534C7.28925 30.048 7.00024 30.7449 6.99963 31.4717V47.1398C7.00055 48.0624 7.36754 48.947 8.02002 49.5992C8.67251 50.2515 9.55717 50.6182 10.4798 50.6188H47.9694C47.1457 49.6469 46.6942 48.4138 46.6956 47.1398ZM30.9203 44.8459C30.9452 44.9854 30.9388 45.1288 30.9017 45.2656C30.8646 45.4024 30.7976 45.5293 30.7055 45.6371C30.6134 45.7449 30.4986 45.831 30.3693 45.8891C30.24 45.9472 30.0995 45.976 29.9577 45.9733H23.7375C23.597 45.9746 23.458 45.9449 23.3304 45.8861C23.2029 45.8273 23.0899 45.7409 22.9998 45.6332C22.9088 45.5253 22.8418 45.3993 22.803 45.2636C22.7643 45.1279 22.7547 44.9855 22.775 44.8459L23.5335 40.2579C23.0378 39.6329 22.728 38.881 22.6396 38.0882C22.5511 37.2955 22.6876 36.4938 23.0333 35.7749C23.379 35.056 23.9201 34.4489 24.5946 34.0231C25.2692 33.5972 26.0499 33.3698 26.8476 33.3668C27.9738 33.368 29.0536 33.816 29.85 34.6123C30.6463 35.4087 31.0943 36.4885 31.0955 37.6147C31.0955 38.5865 30.7647 39.5098 30.1618 40.2579L30.9203 44.8459Z" fill="#2B79C2"/>
<path d="M55.5994 20.1661V47.1392C55.5994 49.0643 54.0432 50.6182 52.1193 50.6182C51.1966 50.6179 50.3117 50.2513 49.6592 49.5989C49.0066 48.9466 48.6397 48.0619 48.6391 47.1392V31.4711C48.6388 30.2286 48.1452 29.037 47.2667 28.1584C46.3883 27.2797 45.1969 26.7858 43.9544 26.7851H9.74086C8.72068 26.7851 7.77774 27.1264 6.99963 27.69V12.7401C7.00055 12.0134 7.28969 11.3169 7.8036 10.8032C8.31752 10.2895 9.01423 10.0006 9.74086 10H20.4234C20.7834 9.99955 21.1399 10.0701 21.4727 10.2076C21.8054 10.3452 22.1077 10.547 22.3623 10.8015C22.6169 11.056 22.8189 11.3582 22.9565 11.6909C23.0942 12.0235 23.1649 12.3801 23.1646 12.7401C23.1673 13.9834 23.663 15.1749 24.5429 16.0533C25.4229 16.9318 26.6152 17.4254 27.8586 17.426H52.8582C53.5846 17.4266 54.2812 17.7153 54.795 18.2287C55.3089 18.7422 55.5982 19.4396 55.5994 20.1661Z" fill="#3B4651"/>
</svg>
