<svg width="18" height="18" viewBox="0 0 18 18" fill="none" xmlns="http://www.w3.org/2000/svg">
<path d="M14.5792 11.5793C15.2727 10.8909 15.8081 10.2068 16.158 9.71625C16.386 9.39652 16.5 9.23662 16.5 9C16.5 8.76338 16.386 8.60348 16.158 8.28375C15.1334 6.84708 12.5169 3.75 9 3.75C8.31915 3.75 7.67205 3.86607 7.0637 4.0637M5.06056 5.06056C3.54838 6.0804 2.43161 7.457 1.84203 8.28375C1.61401 8.60348 1.5 8.76338 1.5 9C1.5 9.23662 1.61401 9.39652 1.84203 9.71625C2.86657 11.1529 5.48309 14.25 9 14.25C10.4931 14.25 11.8238 13.6918 12.9394 12.9394" stroke="#9C9FAD" stroke-width="1.5" stroke-linecap="round" stroke-linejoin="round"/>
<path d="M7.39339 7.5C6.99587 7.8975 6.75 8.44673 6.75 9.05333C6.75 10.2665 7.73347 11.25 8.94667 11.25C9.55327 11.25 10.1025 11.0042 10.5 10.6066" stroke="#9C9FAD" stroke-width="1.5" stroke-linecap="round"/>
<path d="M2.25 2.25L15.75 15.75" stroke="#9C9FAD" stroke-width="1.5" stroke-linecap="round" stroke-linejoin="round"/>
</svg>
